<svg width="32" height="32" viewBox="0 0 32 32" fill="none" xmlns="http://www.w3.org/2000/svg">
<g id="Frame">
<path id="Vector" d="M32 0H0V32H32V0Z" fill="white" fill-opacity="0.01"/>
<path id="Vector_2" d="M28.2874 8.02607C25.135 4.92171 20.7696 3 15.946 3C11.1506 3 6.80823 4.89917 3.66016 7.9714" stroke="#00AA5B" stroke-linecap="round" stroke-linejoin="round"/>
<path id="Vector_3" d="M4.44531 19.6494V19.611C4.44531 13.229 9.61888 8.05542 16.0009 8.05542" stroke="#00AA5B" stroke-linecap="round" stroke-linejoin="round"/>
<path id="Vector_4" d="M20.7793 9.08716C24.7763 10.9054 27.5552 14.9336 27.5552 19.611V19.6196" stroke="#00AA5B" stroke-linecap="round" stroke-linejoin="round"/>
<path id="Vector_5" d="M9.5 24.6666V19.6111C9.5 16.0212 12.4101 13.1111 16 13.1111C19.5899 13.1111 22.5 16.0212 22.5 19.6111V24.6666" stroke="#00AA5B" stroke-linecap="round" stroke-linejoin="round"/>
<path id="Vector_6" d="M11.6836 29.0001C12.9922 28.677 13.8329 27.2971 13.8329 26.1307C13.8329 24.8903 13.8329 22.9579 13.8329 20.3334C13.8329 19.1368 14.8029 18.1667 15.9995 18.1667C17.1962 18.1667 18.1662 19.1368 18.1662 20.3334V26.1307" stroke="#00AA5B" stroke-linecap="round" stroke-linejoin="round"/>
</g>
</svg>
