<svg width="32" height="32" viewBox="0 0 32 32" fill="none" xmlns="http://www.w3.org/2000/svg">
<g id="Frame">
<path id="Vector" d="M32 0H0V32H32V0Z" fill="white" fill-opacity="0.01"/>
<path id="Vector_2" d="M7.33398 10.6667V28.0001" stroke="#00AA5B" stroke-linecap="round" stroke-linejoin="round"/>
<path id="Vector_3" d="M16 19.3333V27.9999" stroke="#00AA5B" stroke-linecap="round" stroke-linejoin="round"/>
<path id="Vector_4" d="M16 12.6667V4" stroke="#00AA5B" stroke-linecap="round" stroke-linejoin="round"/>
<path id="Vector_5" d="M24.666 4V21.3333" stroke="#00AA5B" stroke-linecap="round" stroke-linejoin="round"/>
<path id="Vector_6" d="M7.33333 10.6667C9.17427 10.6667 10.6667 9.17427 10.6667 7.33333C10.6667 5.49239 9.17427 4 7.33333 4C5.49239 4 4 5.49239 4 7.33333C4 9.17427 5.49239 10.6667 7.33333 10.6667Z" stroke="#00AA5B" stroke-linejoin="round"/>
<path id="Vector_7" d="M15.9993 19.3334C17.8403 19.3334 19.3327 17.841 19.3327 16.0001C19.3327 14.1591 17.8403 12.6667 15.9993 12.6667C14.1584 12.6667 12.666 14.1591 12.666 16.0001C12.666 17.841 14.1584 19.3334 15.9993 19.3334Z" stroke="#00AA5B" stroke-linejoin="round"/>
<path id="Vector_8" d="M24.6673 27.9999C26.5083 27.9999 28.0007 26.5075 28.0007 24.6666C28.0007 22.8257 26.5083 21.3333 24.6673 21.3333C22.8264 21.3333 21.334 22.8257 21.334 24.6666C21.334 26.5075 22.8264 27.9999 24.6673 27.9999Z" stroke="#00AA5B" stroke-linejoin="round"/>
</g>
</svg>
