<svg width="28" height="29" viewBox="0 0 28 29" fill="none" xmlns="http://www.w3.org/2000/svg">
<mask id="mask0_5475_4219" style="mask-type:alpha" maskUnits="userSpaceOnUse" x="0" y="0" width="28" height="29">
<path fill-rule="evenodd" clip-rule="evenodd" d="M0 0.941895H28V28.9419H0V0.941895Z" fill="white"/>
</mask>
<g mask="url(#mask0_5475_4219)">
<path fill-rule="evenodd" clip-rule="evenodd" d="M23.3604 25.3486C28.4657 20.7566 29.483 13.1406 25.7684 7.36325C25.675 7.22325 25.5164 7.12992 25.3484 7.13925C25.1804 7.14858 25.0217 7.25125 24.947 7.40058C24.8724 7.54992 24.8817 7.73658 24.975 7.87658C26.3377 9.98592 27.0564 12.4406 27.0564 14.9419C27.0564 22.1472 21.195 27.9992 13.999 27.9992C6.80304 27.9992 0.95104 22.1472 0.95104 14.9419C0.95104 7.74592 6.80304 1.89392 13.999 1.89392C15.5577 1.89392 17.0977 2.16458 18.5537 2.70592C18.8057 2.79925 19.0764 2.67792 19.1604 2.43525C19.2537 2.19258 19.1324 1.91258 18.8897 1.82858C12.4497 -0.570084 5.22571 2.05258 1.82837 8.01658C-1.56896 13.9899 -0.131627 21.5406 5.22571 25.8526C10.5737 30.1552 18.255 29.9406 23.3604 25.3486Z" fill="#00AA5B"/>
<path fill-rule="evenodd" clip-rule="evenodd" d="M22.7243 5.23421C22.8456 5.34621 23.0229 5.39288 23.1909 5.33688C23.3496 5.28088 23.4709 5.15021 23.5083 4.98221C23.5456 4.81421 23.4803 4.64621 23.3496 4.53421C23.0229 4.23554 22.6776 3.95554 22.3323 3.69421C22.1923 3.59154 22.0149 3.57288 21.8563 3.63821C21.7069 3.70354 21.5949 3.85288 21.5763 4.02088C21.5576 4.18888 21.6323 4.34754 21.7629 4.45021C22.0989 4.69288 22.4163 4.95421 22.7243 5.23421ZM12.2422 16.178V23.1687H15.8356V16.178C19.9049 15.9914 22.9756 15.1887 22.9756 14.218C22.9756 13.2567 19.9049 12.454 15.8356 12.2674V10.0834H20.8662V6.75138H7.21155V10.0834H12.2422V12.2674C8.15422 12.4447 5.07422 13.2567 5.07422 14.218C5.07422 15.1887 8.15422 15.9914 12.2422 16.178ZM15.8341 15.342L15.6288 15.3513H15.6008L15.4048 15.3607H15.3861C15.3114 15.3607 15.2391 15.363 15.1668 15.3653C15.0944 15.3677 15.0221 15.37 14.9474 15.37H14.9381L14.7328 15.3793H14.6768H14.5181H13.5288H13.3701H13.3141L13.1274 15.37H13.1088C12.8941 15.37 12.6701 15.3607 12.4554 15.3513L12.2408 15.342C9.01143 15.1927 6.61276 14.6607 6.61276 14.026C6.61276 13.382 9.01143 12.85 12.2408 12.7007V14.726C12.8008 14.754 13.3981 14.7727 14.0234 14.7727C14.6488 14.7727 15.2554 14.754 15.8248 14.7167V12.71C19.0448 12.85 21.4341 13.3913 21.4341 14.026C21.4341 14.6607 19.0448 15.1927 15.8341 15.342Z" fill="#00AA5B"/>
</g>
</svg>
