<?xml version="1.0" encoding="UTF-8"?>
<svg width="30px" height="30px" viewBox="0 0 30 30" version="1.1" xmlns="http://www.w3.org/2000/svg" xmlns:xlink="http://www.w3.org/1999/xlink">
    <title>图标</title>
    <g id="页面-1" stroke="none" stroke-width="1" fill="none" fill-rule="evenodd">
        <g id="图标" transform="translate(-1209.000000, -125.000000)" fill="#1BC147" fill-rule="nonzero">
            <g id="错误-(1)" transform="translate(1209.000000, 125.000000)">
                <path d="M20.988285,8 C20.7294705,8 20.470656,8.09860045 20.2731479,8.29611738 L8.29626202,20.27386 C7.90124599,20.6688939 7.90124599,21.3091648 8.29626202,21.7038826 C8.49377003,21.9013995 8.75258453,22 9.01139903,22 C9.27021353,22 9.52902803,21.9013995 9.72653605,21.7038826 L21.703738,9.72613995 C22.098754,9.33110609 22.098754,8.69083521 21.703738,8.29611738 C21.505914,8.09860045 21.2470995,8 20.988285,8 Z" id="路径"></path>
                <path d="M9.01139903,8 C8.75258453,8 8.49377003,8.09860045 8.29626202,8.29611738 C7.90124599,8.69115124 7.90124599,9.33142212 8.29626202,9.72613995 L20.273464,21.7038826 C20.470972,21.9013995 20.7297865,22 20.988601,22 C21.2474155,22 21.50623,21.9013995 21.703738,21.7038826 C22.098754,21.3088488 22.098754,20.6685779 21.703738,20.27386 L9.72622004,8.29611738 C9.52871202,8.09860045 9.26989752,8 9.01139903,8 Z" id="路径"></path>
                <path d="M15,2.15246637 C16.735426,2.15246637 18.417713,2.49181614 20.0001121,3.16109865 C21.5297085,3.80818386 22.9039238,4.73475336 24.084417,5.91524664 C25.2649103,7.09573991 26.1918161,8.46995516 26.838565,9.99955157 C27.5081839,11.582287 27.8475336,13.264574 27.8475336,15 C27.8475336,16.735426 27.5081839,18.417713 26.8389013,20.0001121 C26.1918161,21.5297085 25.2652466,22.9039238 24.0847534,24.084417 C22.9042601,25.2649103 21.5300448,26.1918161 20.0004484,26.838565 C18.417713,27.5081839 16.735426,27.8475336 15,27.8475336 C13.264574,27.8475336 11.582287,27.5081839 9.99988789,26.8389013 C8.47029148,26.1918161 7.09607623,25.2652466 5.91558296,24.0847534 C4.73508969,22.9042601 3.80818386,21.5300448 3.16143498,20.0004484 C2.49181614,18.417713 2.15246637,16.735426 2.15246637,15 C2.15246637,13.264574 2.49181614,11.582287 3.16109865,9.99988789 C3.80818386,8.47029148 4.73475336,7.09607623 5.91524664,5.91558296 C7.09573991,4.73508969 8.46995516,3.80818386 9.99955157,3.16143498 C11.582287,2.49181614 13.264574,2.15246637 15,2.15246637 M15,0 C6.71569507,0 0,6.71569507 0,15 C0,23.2843049 6.71569507,30 15,30 C23.2843049,30 30,23.2843049 30,15 C30,6.71569507 23.2843049,0 15,0 Z" id="形状"></path>
            </g>
        </g>
    </g>
</svg>