<?xml version="1.0" encoding="UTF-8"?>
<svg width="47px" height="29px" viewBox="0 0 47 29" version="1.1" xmlns="http://www.w3.org/2000/svg" xmlns:xlink="http://www.w3.org/1999/xlink">
    <title>图标</title>
    <g id="页面-1" stroke="none" stroke-width="1" fill="none" fill-rule="evenodd">
        <g id="图标" transform="translate(-711.000000, -341.000000)" fill="#3B99FC" fill-rule="nonzero">
            <g id="编组-2" transform="translate(711.000000, 341.000000)">
                <g id="walletconnect" transform="translate(1.000000, 1.000000)">
                    <path d="M35.7440826,5.32672234 C28.5091357,-1.77557411 16.5657315,-1.77557411 9.21594418,5.32672234 L8.29722078,6.22860127 C7.95269951,6.56680586 7.95269951,7.13048017 8.29722078,7.46868477 L11.2830718,10.3997912 C11.5127527,10.6252609 11.7424336,10.6252609 11.9721144,10.3997912 L13.2353591,9.15970773 C18.4031783,4.19937371 26.6716889,4.19937371 31.7246677,9.15970773 L32.9879124,10.2870564 C33.2175932,10.5125261 33.4472741,10.5125261 33.6769549,10.2870564 L36.662806,7.35594989 C37.0073273,7.0177453 37.0073273,6.45407099 36.662806,6.1158664 L35.7440826,5.32672234 L35.7440826,5.32672234 Z M44.7016358,13.894572 L42.060306,11.3016702 C41.7157847,10.9634656 41.1415826,10.9634656 40.6822209,11.3016702 L32.069189,19.5313152 C31.9543485,19.6440501 31.8395081,19.6440501 31.7246677,19.5313152 L23.2264762,11.3016702 C22.8819549,10.9634656 22.3077528,10.9634656 21.8483911,11.3016702 L13.2353591,19.5313152 C13.1205187,19.6440501 13.0056783,19.6440501 12.8908378,19.5313152 L4.27780588,11.3016702 C3.93328461,10.9634656 3.35908249,10.9634656 2.89972077,11.3016702 L0.258390958,13.894572 C-0.0861303195,14.2327766 -0.0861303195,14.7964509 0.258390958,15.1346555 L12.4314761,26.7463466 C12.7759974,27.0845511 13.3501995,27.0845511 13.8095612,26.7463466 L22.4225932,18.5167015 C22.5374336,18.4039666 22.652274,18.4039666 22.7671145,18.5167015 L31.3801464,26.7463466 C31.7246677,27.0845511 32.2988698,27.0845511 32.7582315,26.7463466 L44.9313167,15.1346555 C45.0461571,14.7964509 45.0461571,14.2327766 44.7016358,13.894572 Z" id="形状"></path>
                </g>
            </g>
        </g>
    </g>
</svg>