<svg width="60" height="60" viewBox="0 0 60 60" fill="none" xmlns="http://www.w3.org/2000/svg">
<mask id="mask0_5511_43324" style="mask-type:alpha" maskUnits="userSpaceOnUse" x="0" y="0" width="60" height="60">
<mask id="mask1_5511_43324" style="mask-type:alpha" maskUnits="userSpaceOnUse" x="0" y="0" width="60" height="60">
<path fill-rule="evenodd" clip-rule="evenodd" d="M0 0H60V60H0V0Z" fill="white"/>
</mask>
<g mask="url(#mask1_5511_43324)">
<path fill-rule="evenodd" clip-rule="evenodd" d="M13.5898 5.66002H19.2508V-0.000976562H13.5898V5.66002Z" fill="white"/>
<path fill-rule="evenodd" clip-rule="evenodd" d="M20.3789 5.66002H26.0399V-0.000976562H20.3789V5.66002Z" fill="white"/>
<path fill-rule="evenodd" clip-rule="evenodd" d="M27.168 5.66002H32.829V-0.000976562H27.168V5.66002Z" fill="white"/>
<path fill-rule="evenodd" clip-rule="evenodd" d="M33.9648 5.66002H39.6258V-0.000976562H33.9648V5.66002Z" fill="white"/>
<path fill-rule="evenodd" clip-rule="evenodd" d="M40.7578 5.66002H46.4188V-0.000976562H40.7578V5.66002Z" fill="white"/>
<path fill-rule="evenodd" clip-rule="evenodd" d="M6.78906 12.452H12.4501V6.79102H6.78906V12.452Z" fill="white"/>
<path fill-rule="evenodd" clip-rule="evenodd" d="M20.3789 12.452H26.0399V6.79102H20.3789V12.452Z" fill="white"/>
<path fill-rule="evenodd" clip-rule="evenodd" d="M27.168 12.452H32.829V6.79102H27.168V12.452Z" fill="white"/>
<path fill-rule="evenodd" clip-rule="evenodd" d="M33.9648 12.452H39.6258V6.79102H33.9648V12.452Z" fill="white"/>
<path fill-rule="evenodd" clip-rule="evenodd" d="M13.5898 19.245H19.2508V13.584H13.5898V19.245Z" fill="white"/>
<path fill-rule="evenodd" clip-rule="evenodd" d="M20.3789 19.245H26.0399V13.584H20.3789V19.245Z" fill="white"/>
<path fill-rule="evenodd" clip-rule="evenodd" d="M27.168 19.245H32.829V13.584H27.168V19.245Z" fill="white"/>
<path fill-rule="evenodd" clip-rule="evenodd" d="M33.9648 19.245H39.6258V13.584H33.9648V19.245Z" fill="white"/>
<path fill-rule="evenodd" clip-rule="evenodd" d="M40.7578 19.245H46.4188V13.584H40.7578V19.245Z" fill="white"/>
<path fill-rule="evenodd" clip-rule="evenodd" d="M13.5898 26.038H19.2508V20.377H13.5898V26.038Z" fill="white"/>
<path fill-rule="evenodd" clip-rule="evenodd" d="M20.3789 26.038H26.0399V20.377H20.3789V26.038Z" fill="white"/>
<path fill-rule="evenodd" clip-rule="evenodd" d="M27.168 26.038H32.829V20.377H27.168V26.038Z" fill="white"/>
<path fill-rule="evenodd" clip-rule="evenodd" d="M33.9648 26.038H39.6258V20.377H33.9648V26.038Z" fill="white"/>
<path fill-rule="evenodd" clip-rule="evenodd" d="M40.7578 26.038H46.4188V20.377H40.7578V26.038Z" fill="white"/>
<path fill-rule="evenodd" clip-rule="evenodd" d="M20.3789 32.8299H26.0399V27.1689H20.3789V32.8299Z" fill="white"/>
<path fill-rule="evenodd" clip-rule="evenodd" d="M27.168 32.8299H32.829V27.1689H27.168V32.8299Z" fill="white"/>
<path fill-rule="evenodd" clip-rule="evenodd" d="M33.9648 32.8299H39.6258V27.1689H33.9648V32.8299Z" fill="white"/>
<path fill-rule="evenodd" clip-rule="evenodd" d="M13.5898 39.6219H19.2508V33.9609H13.5898V39.6219Z" fill="white"/>
<path fill-rule="evenodd" clip-rule="evenodd" d="M20.3789 39.6219H26.0399V33.9609H20.3789V39.6219Z" fill="white"/>
<path fill-rule="evenodd" clip-rule="evenodd" d="M27.168 39.6219H32.829V33.9609H27.168V39.6219Z" fill="white"/>
<path fill-rule="evenodd" clip-rule="evenodd" d="M33.9648 39.6219H39.6258V33.9609H33.9648V39.6219Z" fill="white"/>
<path fill-rule="evenodd" clip-rule="evenodd" d="M40.7578 39.6219H46.4188V33.9609H40.7578V39.6219Z" fill="white"/>
<path fill-rule="evenodd" clip-rule="evenodd" d="M13.5898 46.4149H19.2508V40.7539H13.5898V46.4149Z" fill="white"/>
<path fill-rule="evenodd" clip-rule="evenodd" d="M20.3789 46.4149H26.0399V40.7539H20.3789V46.4149Z" fill="white"/>
<path fill-rule="evenodd" clip-rule="evenodd" d="M27.168 46.4149H32.829V40.7539H27.168V46.4149Z" fill="white"/>
<path fill-rule="evenodd" clip-rule="evenodd" d="M33.9648 46.4149H39.6258V40.7539H33.9648V46.4149Z" fill="white"/>
<path fill-rule="evenodd" clip-rule="evenodd" d="M40.7578 46.4149H46.4188V40.7539H40.7578V46.4149Z" fill="white"/>
<path fill-rule="evenodd" clip-rule="evenodd" d="M47.543 12.452H53.204V6.79102H47.543V12.452Z" fill="white"/>
<path fill-rule="evenodd" clip-rule="evenodd" d="M13.5898 59.9989H19.2508V54.3379H13.5898V59.9989Z" fill="white"/>
<path fill-rule="evenodd" clip-rule="evenodd" d="M20.3789 59.9989H26.0399V54.3379H20.3789V59.9989Z" fill="white"/>
<path fill-rule="evenodd" clip-rule="evenodd" d="M27.168 59.9989H32.829V54.3379H27.168V59.9989Z" fill="white"/>
<path fill-rule="evenodd" clip-rule="evenodd" d="M33.9648 59.9989H39.6258V54.3379H33.9648V59.9989Z" fill="white"/>
<path fill-rule="evenodd" clip-rule="evenodd" d="M40.7578 59.9989H46.4188V54.3379H40.7578V59.9989Z" fill="white"/>
<path fill-rule="evenodd" clip-rule="evenodd" d="M13.5898 53.2079H19.2508V47.5469H13.5898V53.2079Z" fill="white"/>
<path fill-rule="evenodd" clip-rule="evenodd" d="M6.78906 53.2079H12.4501V47.5469H6.78906V53.2079Z" fill="white"/>
<path fill-rule="evenodd" clip-rule="evenodd" d="M20.3789 53.2079H26.0399V47.5469H20.3789V53.2079Z" fill="white"/>
<path fill-rule="evenodd" clip-rule="evenodd" d="M27.168 53.2079H32.829V47.5469H27.168V53.2079Z" fill="white"/>
<path fill-rule="evenodd" clip-rule="evenodd" d="M33.9648 53.2079H39.6258V47.5469H33.9648V53.2079Z" fill="white"/>
<path fill-rule="evenodd" clip-rule="evenodd" d="M40.7578 53.2079H46.4188V47.5469H40.7578V53.2079Z" fill="white"/>
<path fill-rule="evenodd" clip-rule="evenodd" d="M47.543 53.2079H53.204V47.5469H47.543V53.2079Z" fill="white"/>
<path fill-rule="evenodd" clip-rule="evenodd" d="M5.661 46.4149V40.7539H0V46.4149H5.661Z" fill="white"/>
<path fill-rule="evenodd" clip-rule="evenodd" d="M5.661 39.6219V33.9609H0V39.6219H5.661Z" fill="white"/>
<path fill-rule="evenodd" clip-rule="evenodd" d="M5.661 32.8299V27.1689H0V32.8299H5.661Z" fill="white"/>
<path fill-rule="evenodd" clip-rule="evenodd" d="M5.661 26.037V20.376H0V26.037H5.661Z" fill="white"/>
<path fill-rule="evenodd" clip-rule="evenodd" d="M5.661 19.245V13.584H0V19.245H5.661Z" fill="white"/>
<path fill-rule="evenodd" clip-rule="evenodd" d="M12.4501 46.4149V40.7539H6.78906V46.4149H12.4501Z" fill="white"/>
<path fill-rule="evenodd" clip-rule="evenodd" d="M60.0048 46.4149V40.7539H54.3438V46.4149H60.0048Z" fill="white"/>
<path fill-rule="evenodd" clip-rule="evenodd" d="M60.0048 39.6219V33.9609H54.3438V39.6219H60.0048Z" fill="white"/>
<path fill-rule="evenodd" clip-rule="evenodd" d="M60.0048 32.8299V27.1689H54.3438V32.8299H60.0048Z" fill="white"/>
<path fill-rule="evenodd" clip-rule="evenodd" d="M60.0048 26.038V20.377H54.3438V26.038H60.0048Z" fill="white"/>
<path fill-rule="evenodd" clip-rule="evenodd" d="M60.0048 19.245V13.584H54.3438V19.245H60.0048Z" fill="white"/>
<path fill-rule="evenodd" clip-rule="evenodd" d="M53.204 46.4149V40.7539H47.543V46.4149H53.204Z" fill="white"/>
</g>
</mask>
<g mask="url(#mask0_5511_43324)">
<rect x="-9.14844" y="-8.13574" width="75.2542" height="78.3051" fill="url(#paint0_linear_5511_43324)"/>
<rect x="-9.14844" y="-8.13574" width="75.2542" height="78.3051" fill="#00AA5B"/>
</g>
<defs>
<linearGradient id="paint0_linear_5511_43324" x1="-9.14844" y1="31.0168" x2="66.1058" y2="31.0168" gradientUnits="userSpaceOnUse">
<stop stop-color="#1FA2FF"/>
<stop offset="0.5" stop-color="#12D8FA"/>
<stop offset="1" stop-color="#A6FFCB"/>
</linearGradient>
</defs>
</svg>
