<svg width="35" height="36" viewBox="0 0 35 36" fill="none" xmlns="http://www.w3.org/2000/svg">
<mask id="mask0_5507_32788" style="mask-type:alpha" maskUnits="userSpaceOnUse" x="0" y="0" width="35" height="36">
<path fill-rule="evenodd" clip-rule="evenodd" d="M8 2.75C8 3.16421 8.33579 3.5 8.75 3.5H10.25C10.6642 3.5 11 3.16421 11 2.75V1.25C11 0.835786 10.6642 0.5 10.25 0.5H8.75C8.33579 0.5 8 0.835786 8 1.25V2.75Z" fill="white"/>
<path fill-rule="evenodd" clip-rule="evenodd" d="M12 2.75C12 3.16421 12.3358 3.5 12.75 3.5H14.25C14.6642 3.5 15 3.16421 15 2.75V1.25C15 0.835786 14.6642 0.5 14.25 0.5H12.75C12.3358 0.5 12 0.835786 12 1.25V2.75Z" fill="white"/>
<path fill-rule="evenodd" clip-rule="evenodd" d="M16 2.75C16 3.16421 16.3358 3.5 16.75 3.5H18.25C18.6642 3.5 19 3.16421 19 2.75V1.25C19 0.835786 18.6642 0.5 18.25 0.5H16.75C16.3358 0.5 16 0.835786 16 1.25V2.75Z" fill="white"/>
<path fill-rule="evenodd" clip-rule="evenodd" d="M20 2.75C20 3.16421 20.3358 3.5 20.75 3.5H22.25C22.6642 3.5 23 3.16421 23 2.75V1.25C23 0.835786 22.6642 0.5 22.25 0.5H20.75C20.3358 0.5 20 0.835786 20 1.25V2.75Z" fill="white"/>
<path fill-rule="evenodd" clip-rule="evenodd" d="M24 2.75C24 3.16421 24.3358 3.5 24.75 3.5H26.25C26.6642 3.5 27 3.16421 27 2.75V1.25C27 0.835786 26.6642 0.5 26.25 0.5H24.75C24.3358 0.5 24 0.835786 24 1.25V2.75Z" fill="white"/>
<path fill-rule="evenodd" clip-rule="evenodd" d="M4 6.75C4 7.16421 4.33579 7.5 4.75 7.5H6.25C6.66421 7.5 7 7.16421 7 6.75V5.25C7 4.83579 6.66421 4.5 6.25 4.5H4.75C4.33579 4.5 4 4.83579 4 5.25V6.75Z" fill="white"/>
<path fill-rule="evenodd" clip-rule="evenodd" d="M16 6.75C16 7.16421 16.3358 7.5 16.75 7.5H18.25C18.6642 7.5 19 7.16421 19 6.75V5.25C19 4.83579 18.6642 4.5 18.25 4.5H16.75C16.3358 4.5 16 4.83579 16 5.25V6.75Z" fill="white"/>
<path fill-rule="evenodd" clip-rule="evenodd" d="M12 10.75C12 11.1642 12.3358 11.5 12.75 11.5H14.25C14.6642 11.5 15 11.1642 15 10.75V9.25C15 8.83579 14.6642 8.5 14.25 8.5H12.75C12.3358 8.5 12 8.83579 12 9.25V10.75Z" fill="white"/>
<path fill-rule="evenodd" clip-rule="evenodd" d="M12 6.75C12 7.16421 12.3358 7.5 12.75 7.5H14.25C14.6642 7.5 15 7.16421 15 6.75V5.25C15 4.83579 14.6642 4.5 14.25 4.5H12.75C12.3358 4.5 12 4.83579 12 5.25V6.75Z" fill="white"/>
<path fill-rule="evenodd" clip-rule="evenodd" d="M8 10.75C8 11.1642 8.33579 11.5 8.75 11.5H10.25C10.6642 11.5 11 11.1642 11 10.75V9.25C11 8.83579 10.6642 8.5 10.25 8.5H8.75C8.33579 8.5 8 8.83579 8 9.25V10.75Z" fill="white"/>
<path fill-rule="evenodd" clip-rule="evenodd" d="M16 10.75C16 11.1642 16.3358 11.5 16.75 11.5H18.25C18.6642 11.5 19 11.1642 19 10.75V9.25C19 8.83579 18.6642 8.5 18.25 8.5H16.75C16.3358 8.5 16 8.83579 16 9.25V10.75Z" fill="white"/>
<path fill-rule="evenodd" clip-rule="evenodd" d="M20 10.75C20 11.1642 20.3358 11.5 20.75 11.5H22.25C22.6642 11.5 23 11.1642 23 10.75V9.25C23 8.83579 22.6642 8.5 22.25 8.5H20.75C20.3358 8.5 20 8.83579 20 9.25V10.75Z" fill="white"/>
<path fill-rule="evenodd" clip-rule="evenodd" d="M20 6.75C20 7.16421 20.3358 7.5 20.75 7.5H22.25C22.6642 7.5 23 7.16421 23 6.75V5.25C23 4.83579 22.6642 4.5 22.25 4.5H20.75C20.3358 4.5 20 4.83579 20 5.25V6.75Z" fill="white"/>
<path fill-rule="evenodd" clip-rule="evenodd" d="M24 10.75C24 11.1642 24.3358 11.5 24.75 11.5H26.25C26.6642 11.5 27 11.1642 27 10.75V9.25C27 8.83579 26.6642 8.5 26.25 8.5H24.75C24.3358 8.5 24 8.83579 24 9.25V10.75Z" fill="white"/>
<path fill-rule="evenodd" clip-rule="evenodd" d="M12 14.75C12 15.1642 12.3358 15.5 12.75 15.5H14.25C14.6642 15.5 15 15.1642 15 14.75V13.25C15 12.8358 14.6642 12.5 14.25 12.5H12.75C12.3358 12.5 12 12.8358 12 13.25V14.75Z" fill="white"/>
<path fill-rule="evenodd" clip-rule="evenodd" d="M8 14.75C8 15.1642 8.33579 15.5 8.75 15.5H10.25C10.6642 15.5 11 15.1642 11 14.75V13.25C11 12.8358 10.6642 12.5 10.25 12.5H8.75C8.33579 12.5 8 12.8358 8 13.25V14.75Z" fill="white"/>
<path fill-rule="evenodd" clip-rule="evenodd" d="M8 22.75C8 23.1642 8.33579 23.5 8.75 23.5H10.25C10.6642 23.5 11 23.1642 11 22.75V21.25C11 20.8358 10.6642 20.5 10.25 20.5H8.75C8.33579 20.5 8 20.8358 8 21.25V22.75Z" fill="white"/>
<path fill-rule="evenodd" clip-rule="evenodd" d="M16 14.75C16 15.1642 16.3358 15.5 16.75 15.5H18.25C18.6642 15.5 19 15.1642 19 14.75V13.25C19 12.8358 18.6642 12.5 18.25 12.5H16.75C16.3358 12.5 16 12.8358 16 13.25V14.75Z" fill="white"/>
<path fill-rule="evenodd" clip-rule="evenodd" d="M20 14.75C20 15.1642 20.3358 15.5 20.75 15.5H22.25C22.6642 15.5 23 15.1642 23 14.75V13.25C23 12.8358 22.6642 12.5 22.25 12.5H20.75C20.3358 12.5 20 12.8358 20 13.25V14.75Z" fill="white"/>
<path fill-rule="evenodd" clip-rule="evenodd" d="M24 14.75C24 15.1642 24.3358 15.5 24.75 15.5H26.25C26.6642 15.5 27 15.1642 27 14.75V13.25C27 12.8358 26.6642 12.5 26.25 12.5H24.75C24.3358 12.5 24 12.8358 24 13.25V14.75Z" fill="white"/>
<path fill-rule="evenodd" clip-rule="evenodd" d="M24 22.75C24 23.1642 24.3358 23.5 24.75 23.5H26.25C26.6642 23.5 27 23.1642 27 22.75V21.25C27 20.8358 26.6642 20.5 26.25 20.5H24.75C24.3358 20.5 24 20.8358 24 21.25V22.75Z" fill="white"/>
<path fill-rule="evenodd" clip-rule="evenodd" d="M16 18.75C16 19.1642 16.3358 19.5 16.75 19.5H18.25C18.6642 19.5 19 19.1642 19 18.75V17.25C19 16.8358 18.6642 16.5 18.25 16.5H16.75C16.3358 16.5 16 16.8358 16 17.25V18.75Z" fill="white"/>
<path fill-rule="evenodd" clip-rule="evenodd" d="M12 22.75C12 23.1642 12.3358 23.5 12.75 23.5H14.25C14.6642 23.5 15 23.1642 15 22.75V21.25C15 20.8358 14.6642 20.5 14.25 20.5H12.75C12.3358 20.5 12 20.8358 12 21.25V22.75Z" fill="white"/>
<path fill-rule="evenodd" clip-rule="evenodd" d="M12 18.75C12 19.1642 12.3358 19.5 12.75 19.5H14.25C14.6642 19.5 15 19.1642 15 18.75V17.25C15 16.8358 14.6642 16.5 14.25 16.5H12.75C12.3358 16.5 12 16.8358 12 17.25V18.75Z" fill="white"/>
<path fill-rule="evenodd" clip-rule="evenodd" d="M16 22.75C16 23.1642 16.3358 23.5 16.75 23.5H18.25C18.6642 23.5 19 23.1642 19 22.75V21.25C19 20.8358 18.6642 20.5 18.25 20.5H16.75C16.3358 20.5 16 20.8358 16 21.25V22.75Z" fill="white"/>
<path fill-rule="evenodd" clip-rule="evenodd" d="M20 22.75C20 23.1642 20.3358 23.5 20.75 23.5H22.25C22.6642 23.5 23 23.1642 23 22.75V21.25C23 20.8358 22.6642 20.5 22.25 20.5H20.75C20.3358 20.5 20 20.8358 20 21.25V22.75Z" fill="white"/>
<path fill-rule="evenodd" clip-rule="evenodd" d="M20 18.75C20 19.1642 20.3358 19.5 20.75 19.5H22.25C22.6642 19.5 23 19.1642 23 18.75V17.25C23 16.8358 22.6642 16.5 22.25 16.5H20.75C20.3358 16.5 20 16.8358 20 17.25V18.75Z" fill="white"/>
<path fill-rule="evenodd" clip-rule="evenodd" d="M8 26.75C8 27.1642 8.33579 27.5 8.75 27.5H10.25C10.6642 27.5 11 27.1642 11 26.75V25.25C11 24.8358 10.6642 24.5 10.25 24.5H8.75C8.33579 24.5 8 24.8358 8 25.25V26.75Z" fill="white"/>
<path fill-rule="evenodd" clip-rule="evenodd" d="M4 26.75C4 27.1642 4.33579 27.5 4.75 27.5H6.25C6.66421 27.5 7 27.1642 7 26.75V25.25C7 24.8358 6.66421 24.5 6.25 24.5H4.75C4.33579 24.5 4 24.8358 4 25.25V26.75Z" fill="white"/>
<path fill-rule="evenodd" clip-rule="evenodd" d="M12 26.75C12 27.1642 12.3358 27.5 12.75 27.5H14.25C14.6642 27.5 15 27.1642 15 26.75V25.25C15 24.8358 14.6642 24.5 14.25 24.5H12.75C12.3358 24.5 12 24.8358 12 25.25V26.75Z" fill="white"/>
<path fill-rule="evenodd" clip-rule="evenodd" d="M16 26.75C16 27.1642 16.3358 27.5 16.75 27.5H18.25C18.6642 27.5 19 27.1642 19 26.75V25.25C19 24.8358 18.6642 24.5 18.25 24.5H16.75C16.3358 24.5 16 24.8358 16 25.25V26.75Z" fill="white"/>
<path fill-rule="evenodd" clip-rule="evenodd" d="M20 26.75C20 27.1642 20.3358 27.5 20.75 27.5H22.25C22.6642 27.5 23 27.1642 23 26.75V25.25C23 24.8358 22.6642 24.5 22.25 24.5H20.75C20.3358 24.5 20 24.8358 20 25.25V26.75Z" fill="white"/>
<path fill-rule="evenodd" clip-rule="evenodd" d="M24 26.75C24 27.1642 24.3358 27.5 24.75 27.5H26.25C26.6642 27.5 27 27.1642 27 26.75V25.25C27 24.8358 26.6642 24.5 26.25 24.5H24.75C24.3358 24.5 24 24.8358 24 25.25V26.75Z" fill="white"/>
<path fill-rule="evenodd" clip-rule="evenodd" d="M28 26.75C28 27.1642 28.3358 27.5 28.75 27.5H30.25C30.6642 27.5 31 27.1642 31 26.75V25.25C31 24.8358 30.6642 24.5 30.25 24.5H28.75C28.3358 24.5 28 24.8358 28 25.25V26.75Z" fill="white"/>
<path fill-rule="evenodd" clip-rule="evenodd" d="M28 6.75C28 7.16421 28.3358 7.5 28.75 7.5H30.25C30.6642 7.5 31 7.16421 31 6.75V5.25C31 4.83579 30.6642 4.5 30.25 4.5H28.75C28.3358 4.5 28 4.83579 28 5.25V6.75Z" fill="white"/>
<path fill-rule="evenodd" clip-rule="evenodd" d="M8 30.75C8 31.1642 8.33579 31.5 8.75 31.5H10.25C10.6642 31.5 11 31.1642 11 30.75V29.25C11 28.8358 10.6642 28.5 10.25 28.5H8.75C8.33579 28.5 8 28.8358 8 29.25V30.75Z" fill="white"/>
<path fill-rule="evenodd" clip-rule="evenodd" d="M8 34.75C8 35.1642 8.33579 35.5 8.75 35.5H10.25C10.6642 35.5 11 35.1642 11 34.75V33.25C11 32.8358 10.6642 32.5 10.25 32.5H8.75C8.33579 32.5 8 32.8358 8 33.25V34.75Z" fill="white"/>
<path fill-rule="evenodd" clip-rule="evenodd" d="M12 30.75C12 31.1642 12.3358 31.5 12.75 31.5H14.25C14.6642 31.5 15 31.1642 15 30.75V29.25C15 28.8358 14.6642 28.5 14.25 28.5H12.75C12.3358 28.5 12 28.8358 12 29.25V30.75Z" fill="white"/>
<path fill-rule="evenodd" clip-rule="evenodd" d="M12 34.75C12 35.1642 12.3358 35.5 12.75 35.5H14.25C14.6642 35.5 15 35.1642 15 34.75V33.25C15 32.8358 14.6642 32.5 14.25 32.5H12.75C12.3358 32.5 12 32.8358 12 33.25V34.75Z" fill="white"/>
<path fill-rule="evenodd" clip-rule="evenodd" d="M16 30.75C16 31.1642 16.3358 31.5 16.75 31.5H18.25C18.6642 31.5 19 31.1642 19 30.75V29.25C19 28.8358 18.6642 28.5 18.25 28.5H16.75C16.3358 28.5 16 28.8358 16 29.25V30.75Z" fill="white"/>
<path fill-rule="evenodd" clip-rule="evenodd" d="M16 34.75C16 35.1642 16.3358 35.5 16.75 35.5H18.25C18.6642 35.5 19 35.1642 19 34.75V33.25C19 32.8358 18.6642 32.5 18.25 32.5H16.75C16.3358 32.5 16 32.8358 16 33.25V34.75Z" fill="white"/>
<path fill-rule="evenodd" clip-rule="evenodd" d="M20 30.75C20 31.1642 20.3358 31.5 20.75 31.5H22.25C22.6642 31.5 23 31.1642 23 30.75V29.25C23 28.8358 22.6642 28.5 22.25 28.5H20.75C20.3358 28.5 20 28.8358 20 29.25V30.75Z" fill="white"/>
<path fill-rule="evenodd" clip-rule="evenodd" d="M20 34.75C20 35.1642 20.3358 35.5 20.75 35.5H22.25C22.6642 35.5 23 35.1642 23 34.75V33.25C23 32.8358 22.6642 32.5 22.25 32.5H20.75C20.3358 32.5 20 32.8358 20 33.25V34.75Z" fill="white"/>
<path fill-rule="evenodd" clip-rule="evenodd" d="M24 30.75C24 31.1642 24.3358 31.5 24.75 31.5H26.25C26.6642 31.5 27 31.1642 27 30.75V29.25C27 28.8358 26.6642 28.5 26.25 28.5H24.75C24.3358 28.5 24 28.8358 24 29.25V30.75Z" fill="white"/>
<path fill-rule="evenodd" clip-rule="evenodd" d="M24 34.75C24 35.1642 24.3358 35.5 24.75 35.5H26.25C26.6642 35.5 27 35.1642 27 34.75V33.25C27 32.8358 26.6642 32.5 26.25 32.5H24.75C24.3358 32.5 24 32.8358 24 33.25V34.75Z" fill="white"/>
<path fill-rule="evenodd" clip-rule="evenodd" d="M28 30.75C28 31.1642 28.3358 31.5 28.75 31.5H30.25C30.6642 31.5 31 31.1642 31 30.75V29.25C31 28.8358 30.6642 28.5 30.25 28.5H28.75C28.3358 28.5 28 28.8358 28 29.25V30.75Z" fill="white"/>
<path fill-rule="evenodd" clip-rule="evenodd" d="M2.25 27.5C2.66421 27.5 3 27.1642 3 26.75V25.25C3 24.8358 2.66421 24.5 2.25 24.5H0.75C0.335786 24.5 0 24.8358 0 25.25V26.75C0 27.1642 0.335786 27.5 0.75 27.5H2.25Z" fill="white"/>
<path fill-rule="evenodd" clip-rule="evenodd" d="M2.25 23.5C2.66421 23.5 3 23.1642 3 22.75V21.25C3 20.8358 2.66421 20.5 2.25 20.5H0.75C0.335786 20.5 0 20.8358 0 21.25V22.75C0 23.1642 0.335786 23.5 0.75 23.5H2.25Z" fill="white"/>
<path fill-rule="evenodd" clip-rule="evenodd" d="M2.25 19.5C2.66421 19.5 3 19.1642 3 18.75V17.25C3 16.8358 2.66421 16.5 2.25 16.5H0.75C0.335786 16.5 0 16.8358 0 17.25V18.75C0 19.1642 0.335786 19.5 0.75 19.5H2.25Z" fill="white"/>
<path fill-rule="evenodd" clip-rule="evenodd" d="M2.25 15.5C2.66421 15.5 3 15.1642 3 14.75V13.25C3 12.8358 2.66421 12.5 2.25 12.5H0.75C0.335786 12.5 0 12.8358 0 13.25V14.75C0 15.1642 0.335786 15.5 0.75 15.5H2.25Z" fill="white"/>
<path fill-rule="evenodd" clip-rule="evenodd" d="M2.25 11.5C2.66421 11.5 3 11.1642 3 10.75V9.25C3 8.83579 2.66421 8.5 2.25 8.5H0.75C0.335786 8.5 0 8.83579 0 9.25V10.75C0 11.1642 0.335786 11.5 0.75 11.5H2.25Z" fill="white"/>
<path fill-rule="evenodd" clip-rule="evenodd" d="M6.25 31.5C6.66421 31.5 7 31.1642 7 30.75V29.25C7 28.8358 6.66421 28.5 6.25 28.5H4.75C4.33579 28.5 4 28.8358 4 29.25V30.75C4 31.1642 4.33579 31.5 4.75 31.5H6.25Z" fill="white"/>
<path fill-rule="evenodd" clip-rule="evenodd" d="M34.25 27.5C34.6642 27.5 35 27.1642 35 26.75V25.25C35 24.8358 34.6642 24.5 34.25 24.5H32.75C32.3358 24.5 32 24.8358 32 25.25V26.75C32 27.1642 32.3358 27.5 32.75 27.5H34.25Z" fill="white"/>
<path fill-rule="evenodd" clip-rule="evenodd" d="M34.25 23.5C34.6642 23.5 35 23.1642 35 22.75V21.25C35 20.8358 34.6642 20.5 34.25 20.5H32.75C32.3358 20.5 32 20.8358 32 21.25V22.75C32 23.1642 32.3358 23.5 32.75 23.5H34.25Z" fill="white"/>
<path fill-rule="evenodd" clip-rule="evenodd" d="M34.25 19.5C34.6642 19.5 35 19.1642 35 18.75V17.25C35 16.8358 34.6642 16.5 34.25 16.5H32.75C32.3358 16.5 32 16.8358 32 17.25V18.75C32 19.1642 32.3358 19.5 32.75 19.5H34.25Z" fill="white"/>
<path fill-rule="evenodd" clip-rule="evenodd" d="M34.25 15.5C34.6642 15.5 35 15.1642 35 14.75V13.25C35 12.8358 34.6642 12.5 34.25 12.5H32.75C32.3358 12.5 32 12.8358 32 13.25V14.75C32 15.1642 32.3358 15.5 32.75 15.5H34.25Z" fill="white"/>
<path fill-rule="evenodd" clip-rule="evenodd" d="M34.25 11.5C34.6642 11.5 35 11.1642 35 10.75V9.25C35 8.83579 34.6642 8.5 34.25 8.5H32.75C32.3358 8.5 32 8.83579 32 9.25V10.75C32 11.1642 32.3358 11.5 32.75 11.5H34.25Z" fill="white"/>
</mask>
<g mask="url(#mask0_5507_32788)">
<rect y="0.5" width="35" height="35" fill="url(#paint0_linear_5507_32788)"/>
</g>
<defs>
<linearGradient id="paint0_linear_5507_32788" x1="29.1667" y1="30.0312" x2="5.10417" y2="5.96875" gradientUnits="userSpaceOnUse">
<stop stop-color="#008C3D"/>
<stop offset="1" stop-color="#0AC846"/>
</linearGradient>
</defs>
</svg>
