<svg width="18" height="18" viewBox="0 0 18 18" fill="none" xmlns="http://www.w3.org/2000/svg">
<path d="M1.08008 9.00008C1.08008 10.0401 1.28494 11.07 1.68295 12.0309C2.08097 12.9918 2.66435 13.8649 3.39979 14.6004C4.13523 15.3358 5.00833 15.9192 5.96923 16.3172C6.93012 16.7152 7.96001 16.9201 9.00008 16.9201C10.0401 16.9201 11.07 16.7152 12.0309 16.3172C12.9918 15.9192 13.8649 15.3358 14.6004 14.6004C15.3358 13.8649 15.9192 12.9918 16.3172 12.0309C16.7152 11.07 16.9201 10.0401 16.9201 9.00008C16.9201 6.89956 16.0857 4.88508 14.6004 3.39979C13.1151 1.9145 11.1006 1.08008 9.00008 1.08008C6.89956 1.08008 4.88508 1.9145 3.39979 3.39979C1.9145 4.88508 1.08008 6.89956 1.08008 9.00008Z" fill="#00AA5B"/>
<path d="M7.29396 5.46728C7.33243 5.52687 7.35878 5.59345 7.37151 5.66323C7.38425 5.733 7.38311 5.8046 7.36817 5.87394C7.35322 5.94327 7.32477 6.00898 7.28442 6.06732C7.24408 6.12565 7.19264 6.17547 7.13304 6.21392C6.17076 6.8342 5.58 7.889 5.58 9.04352C5.58 10.9069 7.11 12.42 9 12.42C10.89 12.42 12.42 10.9069 12.42 9.04316C12.42 7.90016 11.8408 6.85436 10.8943 6.23156C10.8351 6.19256 10.7841 6.14227 10.7443 6.08357C10.7045 6.02486 10.6767 5.9589 10.6623 5.88943C10.648 5.81997 10.6476 5.74836 10.6609 5.67871C10.6743 5.60906 10.7012 5.54272 10.7402 5.48348C10.7792 5.42424 10.8295 5.37327 10.8882 5.33347C10.9469 5.29367 11.0129 5.26582 11.0824 5.25151C11.1518 5.2372 11.2234 5.23672 11.2931 5.25008C11.3627 5.26345 11.4291 5.2904 11.4883 5.3294C12.7343 6.14984 13.5 7.53224 13.5 9.04352C13.5 11.5056 11.484 13.5 9 13.5C6.516 13.5 4.5 11.5059 4.5 9.04316C4.5 7.51712 5.2812 6.12284 6.54768 5.30636C6.66799 5.22878 6.81419 5.20216 6.95413 5.23233C7.09407 5.26251 7.21631 5.34701 7.29396 5.46728ZM9 3.95996C9.14322 3.95996 9.28057 4.01685 9.38184 4.11812C9.48311 4.21939 9.54 4.35674 9.54 4.49996V8.81996C9.54 8.96318 9.48311 9.10053 9.38184 9.2018C9.28057 9.30307 9.14322 9.35996 9 9.35996C8.85678 9.35996 8.71943 9.30307 8.61816 9.2018C8.51689 9.10053 8.46 8.96318 8.46 8.81996V4.49996C8.46 4.35674 8.51689 4.21939 8.61816 4.11812C8.71943 4.01685 8.85678 3.95996 9 3.95996Z" fill="white"/>
</svg>
